<?xml version="1.0"?>
<svg width="150" height="150" xmlns="http://www.w3.org/2000/svg" xmlns:svg="http://www.w3.org/2000/svg" preserveAspectRatio="xMidYMid meet" version="1.0">
 <metadata>Created by potrace 1.10, written by Peter Selinger 2001-2011</metadata>
 <g class="layer">
  <title>Layer 1</title>
  <g fill="#000000" id="svg_1" transform="matrix(0.227058 0 0 -0.224504 -26.7069 -37.3636)">
   <path d="m251.83,-207.94c-45,-32 -113,-111 -113,-131c0,-6 22,-32 49,-56c48,-43 49,-46 49,-102c0,-53 -3,-60 -41,-99c-23,-24 -47,-43 -54,-43c-39,0 18,-91 92,-148c42,-32 75,-41 75,-22c0,6 19,31 41,55c40,43 44,45 99,45c57,0 59,-1 105,-52l46,-52l36,20c41,21 136,130 130,148c-2,6 -14,16 -26,22c-12,6 -35,24 -52,40c-25,24 -29,35 -29,84c0,53 2,58 43,98c23,23 48,42 55,42c7,0 12,11 12,25c0,35 -120,155 -155,155c-14,0 -25,-6 -25,-13c0,-7 -18,-31 -40,-52c-37,-37 -44,-39 -100,-40c-54,-1 -63,2 -89,30c-16,16 -34,40 -40,53c-15,28 -20,28 -68,-7zm416,-20c34,-26 91,-96 91,-113c0,-5 -34,26 -75,67c-94,96 -98,108 -16,46zm-439,-51c-40,-39 -74,-69 -76,-67c-9,8 58,88 98,117c22,17 43,28 45,26c2,-2 -28,-36 -67,-76zm439,-1c34,-33 61,-64 61,-68c0,-4 -15,-22 -34,-40c-33,-32 -56,-35 -56,-7c0,15 -77,90 -101,98c-10,4 -5,15 20,42c19,20 38,36 42,36c4,0 35,-27 68,-61zm-325,22c28,-29 28,-51 2,-51c-14,0 -70,-59 -93,-96c-11,-18 -13,-18 -43,13l-33,31l21,30c24,33 98,102 110,102c5,0 21,-13 36,-29zm218,-77c187,-131 43,-425 -173,-354c-49,17 -114,85 -130,138c-52,175 154,321 303,216zm-219,-347l38,-20l-37,-38c-21,-22 -41,-39 -44,-39c-6,1 -66,56 -104,98l-30,32l38,39l39,39l31,-46c17,-25 48,-54 69,-65zm351,74c22,-23 26,-33 18,-48c-13,-23 -108,-113 -120,-113c-4,0 -23,15 -41,34c-32,33 -32,34 -12,41c31,9 79,53 97,86c18,36 24,36 58,0zm21,-97c-41,-50 -111,-101 -123,-90c-4,4 2,12 13,18c11,6 47,39 80,73c67,70 88,70 30,-1zm-542,33c16,-25 78,-86 112,-111c11,-8 17,-17 13,-21c-17,-17 -158,117 -158,149c0,14 19,4 33,-17z" id="svg_2"/>
  </g>
 </g>
</svg>